<svg id="图层_1" data-name="图层 1" xmlns="http://www.w3.org/2000/svg" viewBox="0 0 595.28 595.28"><defs><style>.cls-1{fill:#6bccff;}.cls-2{fill:#cfecf9;}</style></defs><path class="cls-1" d="M401.59,156.17c-16.66,1.58-69.61,8.63-95,48.14-35.16,54.73-1.43,146.84,53.91,187.41C420.59,435.74,533.37,439,546,463c.87,1.64,3.22,6.09,1.93,10.91-2.95,11-22.49,14.61-30.81,16-68.84,11.85-284.82-12.35-338.23-.73a150.39,150.39,0,0,1-48.13,3.3c-8.11-.76-20.51-2.6-27-5.14-37-14.55-45.31-117.95-23.1-202.81,7.32-28,22.75-72.26,58.4-120.66Z"/><ellipse class="cls-2" cx="140.64" cy="163.85" rx="68.17" ry="21.45"/><ellipse class="cls-2" cx="240.22" cy="163.85" rx="68.17" ry="21.45"/><ellipse class="cls-2" cx="362.77" cy="163.85" rx="68.17" ry="21.45"/><path d="M147.68,278.05c-1.09,9.87,1.28,19.74,4.67,29a135.12,135.12,0,0,0,11.76,25.14A60.45,60.45,0,0,0,182.38,351c7.14,4.63,15.2,7.74,23.35,10.09A241.28,241.28,0,0,0,231.91,367c9.93,1.7,20.11,2.36,29.84-.78,8.87-2.85,17-7.94,24.54-13.31a105.31,105.31,0,0,0,20.42-18.5c11.65-14.14,18-31.53,23.37-48.79.67-2.12,1.32-4.24,2-6.37.95-3.08-3.88-4.4-4.82-1.33C322.15,294.42,317,311.3,307,325.69a89.32,89.32,0,0,1-17.91,18.82A115.76,115.76,0,0,1,267,358.71a48.56,48.56,0,0,1-12.69,4.16,53.45,53.45,0,0,1-14.35.21,196.61,196.61,0,0,1-26.42-5c-15.73-3.85-31.33-10-41.51-23.17-5.25-6.82-9-14.72-12.31-22.63-3.59-8.66-6.89-17.78-7.3-27.24a46.1,46.1,0,0,1,.24-6.95,2.51,2.51,0,0,0-2.5-2.5,2.57,2.57,0,0,0-2.5,2.5Z"/><path d="M260.35,236.89a48.84,48.84,0,0,0,8.19,13,2.54,2.54,0,0,0,3.54,0,2.57,2.57,0,0,0,0-3.54c-.41-.46-.8-.93-1.19-1.41l-.27-.34s-.31-.39-.14-.17-.11-.14-.13-.18-.18-.23-.26-.35c-.74-1-1.43-2-2.08-3a46.81,46.81,0,0,1-3.35-6.44,2.51,2.51,0,0,0-3.42-.89,2.57,2.57,0,0,0-.89,3.42Z"/><path d="M271.4,228.48l-15.46,26.46c-1.62,2.78,2.7,5.3,4.32,2.52L275.71,231c1.63-2.78-2.69-5.3-4.31-2.52Z"/><path d="M256.4,246.07h19c3.22,0,3.22-5,0-5h-19c-3.21,0-3.22,5,0,5Z"/><path d="M225.84,237.93l14.31,18.43a2.51,2.51,0,0,0,3.53,0,2.57,2.57,0,0,0,0-3.54L229.37,234.4a2.5,2.5,0,0,0-3.53,0,2.54,2.54,0,0,0,0,3.53Z"/><path d="M240.73,233.55a69.87,69.87,0,0,1-11.38,16.87,2.5,2.5,0,0,0,3.54,3.53,75,75,0,0,0,12.16-17.87,2.57,2.57,0,0,0-.89-3.42,2.53,2.53,0,0,0-3.43.89Z"/><path d="M225.1,248.61q10.32-.12,20.63.4a2.5,2.5,0,1,0,0-5q-10.32-.52-20.63-.4c-3.22,0-3.23,5,0,5Z"/></svg>