<svg id="图层_1" data-name="图层 1" xmlns="http://www.w3.org/2000/svg" viewBox="0 0 595.28 595.28"><defs><style>.cls-1{fill:#f7cba4;}.cls-2{fill:#fff;}.cls-3{fill:#231815;}</style></defs><path class="cls-1" d="M269.19,301.54a471.54,471.54,0,0,1-29.87-148.22c-1.82-51,4.51-113,14.94-113.74,12.22-.81,27,82.92,31,105.7a909.25,909.25,0,0,1,13.79,147.07c8.78-8.83,21.56-21,37.91-34.47,30.78-25.33,57-41,85.83-58.16,33.15-19.76,39.44-20.82,67-37.2,0,0,7.62-4.6,20.55-10.69,17.6-8.28,26.45-12.45,28.85-10,5.6,5.71-25.91,45-27.57,47.11-24.34,30.19-74.76,78.39-187.28,132.13,18.43,19.71,35.79,30.68,47.11,36.76,46.39,24.95,81.83,16.58,129.83,49.41,6.63,4.53,24.22,16.57,21.83,23-3.11,8.34-38.27,2.31-51.7,0-33.21-5.71-76.7-13.17-120.64-47.11a228.41,228.41,0,0,1-47.11-49.4A406.15,406.15,0,0,1,287.58,421C268,486.27,227.41,560.57,209.45,555.45c-15.57-4.43-13.11-68.24-2.3-113.74,11.87-50,35.83-86.38,52.85-108a722.8,722.8,0,0,1-90.76,23c-45.85,8.46-64.15,7.18-78.13,4.59-26.62-4.92-60.66-18.79-59.75-31,.25-3.27,3.47-12.72,59.75-23C131.47,299.93,191.4,293.56,269.19,301.54Z"/><path class="cls-2" d="M239.45,262.51c2.63-4.22,5.25-6.94,9-8,7.12-2,14.47,2.88,16.38,4.15,12.11,8.07,13.49,23,14.72,36.21a86.26,86.26,0,0,1-8.86,47.05c-4.73,9.36-7.1,14-11,14.4-12.27,1.11-26.87-37-28.08-64.71A54.7,54.7,0,0,1,239.45,262.51Z"/><path class="cls-2" d="M302.73,263.11c2-3.79,4-6.22,6.89-7.18,5.44-1.81,11.05,2.58,12.51,3.72,9.25,7.24,10.3,20.63,11.24,32.46a89.2,89.2,0,0,1-6.77,42.17c-3.61,8.39-5.42,12.58-8.42,12.91-9.38,1-20.53-33.18-21.45-58A56,56,0,0,1,302.73,263.11Z"/><path d="M233.34,279.45c2.27-7.34,4.88-15.6,11.4-20.34,5.76-4.18,12.87-3.66,18.79-.08,6.48,3.92,10.19,10.72,12.25,17.81,2.22,7.71,3,15.9,3.3,23.9a103.14,103.14,0,0,1-1.83,24.55c-1.63,7.87-4.24,16-8.69,22.77-2,3-5,5.84-8.79,5.77s-7.2-3-9.7-5.59a55.45,55.45,0,0,1-7.22-9.6,57.81,57.81,0,0,1-5.44-11.08c-3-8.37-3.45-17.33-3.43-26.14,0-8.42.77-16.88,3.38-24.92a49.73,49.73,0,0,1,2.19-5.61,2.57,2.57,0,0,0-.9-3.42,2.52,2.52,0,0,0-3.42.9c-4,8.55-5.65,17.84-6.11,27.21-.46,9.52-.26,19.51,2.09,28.79,2.27,8.94,6.95,17.23,12.69,24.4,2.73,3.42,6.06,6.73,10.07,8.59a13.17,13.17,0,0,0,13.23-.83c3.86-2.58,6.3-6.59,8.31-10.67a77.58,77.58,0,0,0,4.94-12.71,98.82,98.82,0,0,0,3.71-26.93,121.11,121.11,0,0,0-2.59-26.85c-1.8-8.21-5.29-16.62-11.94-22.09-6.07-5-14.52-7.89-22.23-5.16-8.62,3-13.61,11.1-16.65,19.27-.82,2.21-1.53,4.47-2.23,6.73-1,3.08,3.88,4.4,4.82,1.33Z"/><path d="M248.9,287.44a45.3,45.3,0,0,0-1.63,13.75,31.94,31.94,0,0,0,3,13.16,4.65,4.65,0,0,0,2.24,2.53A3.39,3.39,0,0,0,256,316a13.43,13.43,0,0,0,3.47-4.67,33.46,33.46,0,0,0,2.6-12.55c.2-4.82,0-10-3.2-13.9a2.52,2.52,0,0,0-3.93.5c-3.87,7.62-1.74,15.88-2,24a2.5,2.5,0,1,0,5,0c.47-6.31.92-12.65.17-19a2.56,2.56,0,0,0-1.53-2.29,2.49,2.49,0,0,0-2.73.52,23.69,23.69,0,0,0-5.19,19.46,2.52,2.52,0,0,0,2.42,1.83,2.62,2.62,0,0,0,2.41-1.83c1.33-3.37,1.36-7.06,1.32-10.63,0-2.74-4.33-3.51-4.91-.67a60.5,60.5,0,0,0-1.2,15.71c.18,3.2,5.18,3.22,5,0a55.51,55.51,0,0,1,1-14.38l-4.91-.66c0,3.17,0,6.3-1.15,9.3h4.83a18.25,18.25,0,0,1,3.89-14.59l-4.27-1.77c.75,6.31.3,12.65-.17,19h5c.19-7-2.06-14.92,1.28-21.49l-3.93.51A9.71,9.71,0,0,1,257,293.7a43.57,43.57,0,0,1-.13,7.83,28.19,28.19,0,0,1-1.39,6.42,11.7,11.7,0,0,1-1.21,2.46,7,7,0,0,1-.85,1.11l-.52.52-.28.25c-.25.2-.19.17.16-.1l1.93.25-.23-.14.89.9c-2.31-3.17-2.87-7.74-3.07-11.55a40.59,40.59,0,0,1,1.43-12.88c.86-3.1-4-4.43-4.82-1.33Z"/><path d="M300.43,259.93c-2.67,9.86-3.58,20.11-3.83,30.3s-.23,20.26,1.09,30.27a87.44,87.44,0,0,0,3.15,14.75,38,38,0,0,0,6.2,12.53c1.49,1.86,3.36,3.87,6,3.28,2.21-.49,4.16-2.47,5.83-3.92a57.31,57.31,0,0,0,8.85-9.82C339.08,321.58,342.38,301,340.67,282c-.8-8.82-2.42-19.11-9.23-25.46a18.31,18.31,0,0,0-11.3-5c-4.51-.28-8.48,1.8-11.53,5-6.18,6.49-9.66,16.06-8.32,25a14.41,14.41,0,0,0,2.41,6.29c1.61,2.23,3.84,2.9,6.51,2.68a29.5,29.5,0,0,0,13.06-4.78c2-1.21,3.83-2.55,5.7-3.89a2.57,2.57,0,0,0,.89-3.42,2.51,2.51,0,0,0-3.42-.9c-3.34,2.41-6.77,4.92-10.6,6.51a19.29,19.29,0,0,1-5.41,1.46,4.85,4.85,0,0,1-2.11,0c-.68-.3-1.14-1.49-1.4-2.12-1.41-3.4-1.08-7.52-.28-11A27.1,27.1,0,0,1,310.48,262c2-2.66,4.71-5.29,8.24-5.49a12.65,12.65,0,0,1,8.91,3.25c5.86,5.19,7.24,14.07,8,21.44,1.67,17-.7,35.27-9.82,50a54.37,54.37,0,0,1-7.06,9.14,49.22,49.22,0,0,1-4.16,3.88,23.3,23.3,0,0,1-2.08,1.63c-1,.66,0,.19-.11.33,0,0-.89-.92-1-1-2.63-2.93-4.22-6.69-5.44-10.39a79.75,79.75,0,0,1-3.08-13.13c-1.34-8.81-1.42-17.79-1.35-26.68a150.25,150.25,0,0,1,2.18-27c.43-2.25.95-4.49,1.56-6.7.84-3.11-4-4.44-4.83-1.33Z"/><path d="M313.46,286.12A38.3,38.3,0,0,0,310,310.48a2.52,2.52,0,0,0,3.67,1.5,36.42,36.42,0,0,0,15.22-19.65,16.12,16.12,0,0,0,1.1-6.08,4.49,4.49,0,0,0-5-4.31c-2.52.32-3.95,2.35-5.38,4.22a54.2,54.2,0,0,0-4,5.84c-2.81,4.91-4.33,10.46-3.25,16.09a2.48,2.48,0,0,0,2.75,1.79,2.52,2.52,0,0,0,2.16-2.45l1.89-19.68a2.46,2.46,0,0,0-2.17-2.45,2.53,2.53,0,0,0-2.74,1.79,80,80,0,0,0-5,21.86c-.23,2.57,3.46,3.25,4.66,1.26,3.3-5.5,2.91-12,4.58-18l-4.91-.67a72.46,72.46,0,0,0,.43,10.62,2.56,2.56,0,0,0,1.54,2.28,2.49,2.49,0,0,0,2.73-.51c3.45-3.8,5.12-8.59,6.65-13.39,1-3.09-3.79-4.36-4.82-1.33l-2.41,7.1c-.94,2.74,3.12,4.28,4.56,1.92a29.82,29.82,0,0,0,4.1-11.85,2.45,2.45,0,0,0-2.16-2.45,2.52,2.52,0,0,0-2.75,1.79l-1.3,3.69h4.82l-.3-2.11a2.51,2.51,0,0,0-3.08-1.75,2.55,2.55,0,0,0-1.74,3.07l.3,2.12a2.5,2.5,0,0,0,2.41,1.83,2.59,2.59,0,0,0,2.41-1.83l1.3-3.69-4.91-.67a24,24,0,0,1-3.41,9.33l4.57,1.92,2.41-7.09-4.82-1.33c-1.25,3.93-2.53,8.06-5.36,11.18l4.26,1.77a72.46,72.46,0,0,1-.43-10.62c.09-2.84-4.16-3.36-4.91-.66-1.53,5.51-1.06,11.78-4.08,16.8l4.66,1.27A75.47,75.47,0,0,1,319,288.42l-4.91-.67-1.89,19.68,4.91-.67a16.73,16.73,0,0,1,1.72-10.29,37.89,37.89,0,0,1,6-9c.11-.12.58-.44.61-.55l.13,0-.47-.19c-.3-.13-.06-.52-.12.08a7,7,0,0,1-.1.91,31.52,31.52,0,0,1-1.36,4.76,30.81,30.81,0,0,1-12.43,15.22l3.68,1.5a32.61,32.61,0,0,1,3-20.51c1.45-2.87-2.86-5.4-4.32-2.53Z"/><path class="cls-3" d="M288.27,389.53c3.62-6.6,8.56-12.88,15.5-16.17a17.54,17.54,0,0,1,17.93,1.58,11.78,11.78,0,0,1,4.88,7.75,2.57,2.57,0,0,0,2.5,2.5,2.51,2.51,0,0,0,2.5-2.5c-.95-8-7.51-13.81-15.2-15.53-8.68-1.94-17.06,1.7-23.32,7.66A49.72,49.72,0,0,0,284,387c-1.55,2.82,2.77,5.34,4.32,2.52Z"/></svg>