<svg id="图层_1" data-name="图层 1" xmlns="http://www.w3.org/2000/svg" viewBox="0 0 595.28 595.28"><defs><style>.cls-1{fill:none;stroke:#000;stroke-linecap:round;stroke-linejoin:round;stroke-width:30px;}</style></defs><path class="cls-1" d="M249.47,87.21l24,92.34V130.27l12,39.51,9.46-67,20.28,84.79,27.08-65.7v49.72l51.5-77.69-36.4,98.55,88.34-43.06-60.37,77.25L495.41,196,393.75,265.67,530,259l-102.55,25.3,106.1,19.53L432.37,307l101.22,44-103-5.77,126.52,67.92L416,369.56,491,437l-80.35-46.17,27.08,28.42-39.07-17.76,42.18,63.93-67.92-69.7,20,104.32-52.83-87,8.44,95s-31.08-107-31.08-105.65,4,50.61,4,50.61l-22.2-34.63,3.11,79.46-9.77-91-40.4,77.24,22.2-83.46-63,74.58,30.63-68.81S154,483.2,152.69,485s57.71-87,57.71-87l-97.22,57.27,63.48-58.16-76.35,14.65,47.5-24.42L63.9,376.66l109.66-19.53L38.16,332.71l118.53-9.32L53.25,275,146,285.21,62.57,233.27,170,256.35l-83-71L190.87,239l-47.5-73.25,65.26,61.71L182.44,125.39l38.17,64.37-10.21-91,40.4,100.78Z"/></svg>