<svg id="图层_1" data-name="图层 1" xmlns="http://www.w3.org/2000/svg" viewBox="0 0 595.28 595.28"><defs><style>.cls-1{fill:#8cb5c6;}.cls-2{fill:#231815;}</style></defs><path class="cls-1" d="M53.77,369.93c.65,1.34,21.06-8.8,21.06-8.8,22.75-11.31,124-49.82,226.15-37.34,62.55,7.64,206.87,44.37,230.81,40.08,1.36-.24,5.9-1.06,6.38-3.32,1-4.77-17-11.16-28.79-18.12-25.17-14.91-33.56-39.87-40.59-52.08-28.71-49.89-124.13-65.8-180-65.11-42.22.53-143.07,11.41-160.77,59.36-3.52,9.52-7.28,30.06-23.32,37.27-8.25,3.71-13.3,1-32.55,4.21C58.29,328.4,41.81,333,42.09,336c.4,4.54,37.55,2.19,38.87,10.15.15.95-.16,2.26-6.13,7.66C63.49,364.11,53.51,369.42,53.77,369.93Z"/><circle cx="455.24" cy="275.66" r="8.67"/><circle cx="431.1" cy="265.37" r="8.67"/><path d="M285.29,298.49c-13.85,6.15-29.51,10.29-38.65,23.39a27.94,27.94,0,0,0-4.6,10.75,2.55,2.55,0,0,0,3.08,3.08q16.11-2.61,32-6.4c8.73-2.09,17.88-4.05,25.81-8.4a30.55,30.55,0,0,0,10.71-9.49,2.53,2.53,0,0,0-.9-3.42,2.55,2.55,0,0,0-3.42.9c-4.42,6.47-12.06,9.66-19.29,11.87-9.41,2.86-19.11,5-28.75,6.93q-8.7,1.77-17.49,3.19l3.08,3.07c2.61-14,16.51-21.17,28.48-26,4.16-1.69,8.36-3.3,12.47-5.13a2.51,2.51,0,0,0,.89-3.42,2.56,2.56,0,0,0-3.42-.89Z"/><path class="cls-2" d="M421.21,253.68a61.46,61.46,0,0,1,6.72-2.8,16.68,16.68,0,0,1,16.37,4.58c2.23,2.33,5.76-1.21,3.54-3.54a21.69,21.69,0,0,0-13.15-6.44,21,21,0,0,0-7.2.36c-2.7.6-5.07,2-7.61,3a2.58,2.58,0,0,0-1.75,3.07,2.52,2.52,0,0,0,3.08,1.75Z"/><path class="cls-2" d="M453.25,263.92c5.11-.56,11-1.35,15.78,1.1a12,12,0,0,1,6.38,11.43c-.2,3.21,4.8,3.2,5,0a16.9,16.9,0,0,0-8.15-15.36c-5.74-3.37-12.66-2.87-19-2.17a2.57,2.57,0,0,0-2.5,2.5,2.53,2.53,0,0,0,2.5,2.5Z"/></svg>