<?xml version="1.0" standalone="no"?><!DOCTYPE svg PUBLIC "-//W3C//DTD SVG 1.1//EN" "http://www.w3.org/Graphics/SVG/1.1/DTD/svg11.dtd"><svg t="1688574497673" class="icon" viewBox="0 0 1024 1024" version="1.1" xmlns="http://www.w3.org/2000/svg" p-id="4104" xmlns:xlink="http://www.w3.org/1999/xlink" width="200" height="200"><path d="M748.99816918 322.69018555l-96.38525437 96.30615257c18.58886742 28.11566138 27.90307641 59.11853028 27.90307641 93.00366188 0 33.88513159-9.31420898 64.88800049-27.90307641 93.00860596l96.38525437 96.30120849c21.77764916-27.19116234 38.26538086-57.06188989 49.50274635-89.50836182A303.13696266 303.13696266 0 0 0 815.35449242 512a302.33605933 302.33605933 0 0 0-16.85357689-99.80639671c-11.25714112-32.44152857-27.77947998-62.31225609-49.50274635-89.50341774M512 208.67517066a303.39404297 303.39404297 0 0 0-99.81628418 16.78930664 301.78729223 301.78729223 0 0 0-89.54296899 49.53735352l96.4050293 96.40502929c28.09588647-18.63830542 59.07897973-27.90801978 92.95422387-27.90801978 33.86535668 0 64.84844994 9.26971435 92.9443357 27.90801978l96.4050293-96.40502929c-27.20599389-21.72821045-57.06683326-38.31481958-89.54296829-49.53735352A303.29022217 303.29022217 0 0 0 512 208.67517066m0 202.18359375c-27.89318825 0-51.76208497 9.88769508-71.49298119 29.66308594-19.75561523 19.67157007-29.63342286 43.56518578-29.63342286 71.47814965 0 27.91296386 9.87780761 51.70275879 29.63342286 71.47814965 19.73583961 19.77539086 43.60473633 29.66308594 71.49298119 29.66308594 27.89318825 0 51.74725342-9.88769508 71.50286865-29.66308594 19.74572778-19.77539086 29.61364722-43.56518578 29.61364722-71.47814965 0-27.91296386-9.86792016-51.81152367-29.61364722-71.47814965-19.75561523-19.77539086-43.60968041-29.66308594-71.50286865-29.66308594m189.349365 338.13446069l-96.4050293-96.4050293c-28.09588647 18.64324951-59.07897973 27.91296386-92.9443357 27.91296387-33.87524414 0-64.86328148-9.26971435-92.95916724-27.90801978l-96.40008593 96.40502929a301.78729223 301.78729223 0 0 0 89.54296899 49.53735352 303.39404297 303.39404297 0 0 0 99.81628418 16.78930664c34.06311011 0 67.35003662-5.56182862 99.80639671-16.78930664a301.65875244 301.65875244 0 0 0 89.53802492-49.53735352m-329.97216797-330.00183105l-96.3803103-96.30615258c-21.77270508 27.19116234-38.26538086 57.06188989-49.48791481 89.50836182A302.62774682 302.62774682 0 0 0 208.62573266 512a302.36077905 302.36077905 0 0 0 16.87335181 99.80639671c11.25714112 32.44152857 27.76959252 62.31225609 49.4879148 89.50341774l96.3803103-96.30615257C352.78833031 576.89294458 343.47412133 545.89007568 343.47412133 512c0-33.88513159 9.31420898-64.88800049 27.89318824-93.00860596M511.99505593 141.21142578c48.42993188 0 95.41626 9.26971435 140.89965819 27.70532227 45.44879174 18.440552 85.93890405 45.32025123 121.38134765 80.85168481 35.45233178 35.43255615 62.41113281 75.912781 80.8566289 121.33190894C873.57324195 416.62329125 882.78857422 463.58984375 882.78857422 512c0 48.41015625-9.22027564 95.37670875-27.65588355 140.8996582-18.44549537 45.42407203-45.40429711 85.89935279-80.85662889 121.33190894-35.44244361 35.53143287-75.93255593 62.4160769-121.38629103 80.85168481C607.41626 873.51885987 560.42498779 882.78857422 512 882.78857422c-48.43981934 0-95.41626-9.26971435-140.8996582-27.70532227-45.44879174-18.440552-85.92901587-45.32025123-121.38134766-80.85168481C214.25183082 738.79901099 187.2880857 698.31878686 168.84753442 652.8996582 150.42181396 607.37670875 141.21142578 560.41015625 141.21142578 512c0-48.41015625 9.21038818-95.37670875 27.63610864-140.8996582 18.44549537-45.42407203 45.40429711-85.89935279 80.86651564-121.33190894C285.16143775 214.23699927 325.64660668 187.35235596 371.1003418 168.91674805 416.57385253 150.48114013 463.55029321 141.21142578 511.99505593 141.21142578" p-id="4105" fill="#2c2c2c"></path></svg>