<svg id="图层_1" data-name="图层 1" xmlns="http://www.w3.org/2000/svg" viewBox="0 0 250 250"><path d="M75.09,62.4c-.44-1.16-1-2.29-1.36-3.47s-.79-2.39-1.21-3.57a.2.2,0,0,1,0-.07L69.6,56.47c-1.26.53-2.52,1.06-3.76,1.64A110.11,110.11,0,0,0,22.08,94.56,115.66,115.66,0,0,0,6,127.14a130.71,130.71,0,0,0-4.53,19.72A124.63,124.63,0,0,0,0,168.34a7.07,7.07,0,0,0,9.86,6c3.06-1.46,3.95-4.14,4.16-7.26.28-4.3.56-8.61,1-12.9a110.18,110.18,0,0,1,5.24-23.87c6-17.94,15.77-33.33,30.32-45.57A94.11,94.11,0,0,1,77.48,69C76.71,66.82,75.92,64.6,75.09,62.4Z"/></svg>