<svg id="图层_1" data-name="图层 1" xmlns="http://www.w3.org/2000/svg" viewBox="0 0 595.28 595.28"><defs><style>.cls-1{fill:none;stroke:#000;stroke-linecap:round;stroke-linejoin:round;stroke-width:30px;}</style></defs><path class="cls-1" d="M298,247.05a225.69,225.69,0,0,1,61.4,4.16C387.14,257,411,262,428.2,282.45c2.43,2.89,17.67,21.55,18.13,47.86,1.05,59.44-74.43,96.53-82.81,100.51a168.67,168.67,0,0,1-66,15.95"/><path class="cls-1" d="M463.81,129.06c-8.2-2.28-23.15,20.61-30.59,40.86-4.59,12.53-16.37,44.61.44,67.74,2.88,4,10.45,13,22.94,16.39,17.29,4.75,32.61-4.27,40.21-8.74,28-16.48,47.33-51.71,42.39-84.13-2.29-15-10.42-33.61-19.45-33.87-7.35-.21-14.36,11.74-19,19.67-8.58,14.63-8.24,24.28-16.17,27.09-3.75,1.33-9.39,1.14-12.45-2-5.81-5.9,2.89-17-2.41-33.44C468.23,134.08,466.89,129.91,463.81,129.06Z"/><path class="cls-1" d="M444.15,248.06l-20.79,29.2"/><path class="cls-1" d="M466,255.39q-12.81,23.73-25.6,47.48"/><path class="cls-1" d="M444.08,313.76l37,1.91,35.83,54.62-5.68,9.18L469.06,342.4l-23.69.69"/><path class="cls-1" d="M440.66,359.3l34.52,20.17,28.62,54.41-3.28,17.7L466,404.16,427.15,382"/><path class="cls-1" d="M411.3,398.84l30.23,16.47L446.34,468h-7.87l-25.13-33.65-24.93-17.76"/><path class="cls-1" d="M297.31,247.05a225.66,225.66,0,0,0-61.4,4.16C208.14,257,184.3,262,167.08,282.45c-2.43,2.89-17.67,21.55-18.14,47.86-1.05,59.44,74.44,96.53,82.82,100.51a168.6,168.6,0,0,0,66,15.95"/><path class="cls-1" d="M131.46,129.06c8.2-2.28,23.16,20.61,30.59,40.86,4.6,12.53,16.38,44.61-.43,67.74-2.89,4-10.45,13-23,16.39-17.28,4.75-32.6-4.27-40.2-8.74-28-16.48-47.33-51.71-42.39-84.13,2.28-15,10.41-33.61,19.44-33.87,7.35-.21,14.36,11.74,19,19.67,8.59,14.63,8.25,24.28,16.17,27.09,3.75,1.33,9.4,1.14,12.46-2,5.8-5.9-2.9-17,2.4-33.44C127,134.08,128.39,129.91,131.46,129.06Z"/><path class="cls-1" d="M151.13,248.06l20.79,29.2"/><path class="cls-1" d="M129.26,255.39l25.59,47.48"/><path class="cls-1" d="M151.2,313.76l-37,1.91L78.36,370.29l5.69,9.18,42.17-37.07,23.68.69"/><path class="cls-1" d="M154.61,359.3,120.1,379.47,91.47,433.88l3.28,17.7,34.51-47.42L168.12,382"/><path class="cls-1" d="M184,398.84l-30.23,16.47L148.93,468h7.88l25.13-33.65,24.92-17.76"/></svg>