<svg id="图层_1" data-name="图层 1" xmlns="http://www.w3.org/2000/svg" viewBox="0 0 595.28 595.28"><defs><style>.cls-1{fill:#6bccff;}</style></defs><path class="cls-1" d="M57.76,188.19C15.15,235.06,46.21,337.42,80.15,394c8.88,14.79,17.14,28.55,32.92,42.76,54.24,48.85,129.33,39,230.12,26.07,97.51-12.46,120.18-33.54,131.16-47.3,18.16-22.73,23.12-48.86,24.48-66.59,9.89-2.8,18.45-5.1,25.28-6.89,17-4.46,20.63-5,25.59-4.66,3.41.26,14.06,1.22,23,8.68,10.52,8.79,10.87,20.13,13.28,19.66,3.12-.61,5.38-20.32-4.34-36a42.81,42.81,0,0,0-7.15-8.68,21,21,0,0,0,11-22.72,99.11,99.11,0,0,0-.51-23c-.77-5.51-1.18-8.27-2.56-8.68-4.76-1.42-10.12,24.52-26.29,34.72-9.3,5.86-25.57,8.66-56.11-5.3a151.31,151.31,0,0,0-23.58-41.11c-31-38.34-73.4-49-129.85-65.49-12.93-3.79-60.43-17.17-130.4-20.78C126.61,164,81.83,161.71,57.76,188.19Z"/><path d="M183.08,167.51c.45-10.54.55-21.71-4.17-31.41-5-10.2-15.37-15.9-26.23-17.71-7.44-1.25-15-1-22.46-.7-3.21.13-3.23,5.14,0,5,11.2-.45,23.24-1,33.4,4.55a25.44,25.44,0,0,1,10.28,10,36.14,36.14,0,0,1,3.92,13.3,109.83,109.83,0,0,1,.26,16.92c-.14,3.22,4.86,3.21,5,0Z"/><path d="M194.17,168.78a179.68,179.68,0,0,0,1.68-46.09,2.57,2.57,0,0,0-2.5-2.5,2.51,2.51,0,0,0-2.5,2.5,174.73,174.73,0,0,1-1.5,44.76,2.57,2.57,0,0,0,1.75,3.07,2.52,2.52,0,0,0,3.07-1.74Z"/><path d="M201.87,172.25a164.54,164.54,0,0,1,15.86-25.51c4.93-6.52,11.15-15.16,20.22-15.21,5.42,0,10.51,2.56,15.12,5.18,2.8,1.59,5.32-2.73,2.52-4.32-4.75-2.69-9.76-5.08-15.24-5.71a20.22,20.22,0,0,0-14,3.71c-4,2.85-7.23,6.6-10.28,10.44-3.34,4.21-6.5,8.57-9.42,13.08a166.14,166.14,0,0,0-9.06,15.82c-1.44,2.86,2.87,5.4,4.32,2.52Z"/><path d="M102.36,345.75a546.13,546.13,0,0,0,80.32,18.83,528.06,528.06,0,0,0,52.81,5.27c24.78,1.3,49.61,1.78,74.41,2.39,24.63.61,49.21,1.33,73.83.25a711.79,711.79,0,0,0,77.1-7.61c2.36-.36,4.71-.74,7.07-1.13,3.17-.52,1.82-5.34-1.33-4.82a696.38,696.38,0,0,1-72.44,8c-24.35,1.43-48.59,1.16-73,.57-26.11-.64-52.24-1.14-78.34-2.32-17.33-.78-34.63-2-51.82-4.41a538.27,538.27,0,0,1-75.76-16.35q-5.81-1.69-11.56-3.51c-3.08-1-4.4,3.86-1.33,4.82Z"/><path d="M119.77,372.15c6,6.35,10.08,14.18,14.73,21.53a144.12,144.12,0,0,0,15.76,20.4c11.72,12.74,25.31,23.59,39.09,34,3.89,2.93,7.75,5.95,11.79,8.67s8.54,5.08,13.43,5.87a2.58,2.58,0,0,0,3.08-1.74,2.52,2.52,0,0,0-1.75-3.08c-8.39-1.35-15.21-7.42-21.79-12.36-6.77-5.08-13.47-10.25-20-15.68-12.89-10.83-25-22.81-34.29-37-5.35-8.19-9.77-17-16.57-24.18-2.22-2.34-5.75,1.2-3.53,3.53Z"/><path d="M169.34,374.12c9.63,13,19.08,26.22,29,39,9.15,11.77,19.14,22.95,31.28,31.71A86.36,86.36,0,0,0,250.56,456a2.52,2.52,0,0,0,3.08-1.74,2.56,2.56,0,0,0-1.75-3.08c-27.47-10-45.29-35-62-57.63l-16.25-22a2.58,2.58,0,0,0-3.42-.9,2.53,2.53,0,0,0-.9,3.42Z"/><path d="M239.1,379.68c2.19,6.29,5.78,11.85,9.75,17.14,4.28,5.68,8.73,11.24,13.18,16.78s9.14,11.22,13.8,16.75a68.39,68.39,0,0,0,6.69,7.24,32.17,32.17,0,0,0,8.23,5.25c6.23,2.78,13.07,4.11,19.07,7.42,2.82,1.56,5.34-2.76,2.52-4.31-5.37-3-11.34-4.43-17-6.6a33.35,33.35,0,0,1-7.52-3.9,38.82,38.82,0,0,1-6.65-6.54c-9.09-10.58-17.85-21.48-26.38-32.53-4.28-5.54-8.52-11.36-10.84-18a2.56,2.56,0,0,0-3.07-1.75,2.53,2.53,0,0,0-1.75,3.08Z"/><path d="M287,383.32c8.75,11.38,17.7,22.69,28.12,32.6,10.68,10.16,22.8,18.4,36.63,23.64a175.41,175.41,0,0,0,25.67,7.16c3.14.67,4.48-4.14,1.33-4.82-14.65-3.13-29.14-7.23-41.95-15.23C325,419.32,315,409.49,306,399c-5.12-5.91-10-12.05-14.72-18.24a2.58,2.58,0,0,0-3.42-.9,2.51,2.51,0,0,0-.89,3.42Z"/><path d="M351.87,385.92a130.8,130.8,0,0,0,51,33.77,127.1,127.1,0,0,0,16.47,4.77c3.13.68,4.47-4.14,1.33-4.82A125.61,125.61,0,0,1,367.72,394a127.78,127.78,0,0,1-12.32-11.63c-2.19-2.37-5.72,1.18-3.53,3.53Z"/><path d="M413.46,380.15c11.86,10.09,27.17,13.86,42.31,15.59,4.74.54,9.49.9,14.25,1.26a2.51,2.51,0,0,0,2.5-2.5A2.56,2.56,0,0,0,470,392c-18.28-1.38-38.43-3-53-15.39a2.56,2.56,0,0,0-3.54,0,2.54,2.54,0,0,0,0,3.54Z"/><path d="M91,237.93c-.56,3.39-.37,7.22,1.42,10.25s5.43,4.38,8.53,2.38,3.73-5.72,4.13-9.08a25.93,25.93,0,0,0-.57-9.65c-.81-3-2.66-8-6.7-6.8-3,.92-4.73,4.32-5.33,7.18a44.6,44.6,0,0,0-.65,9.52c0,3.29.12,8.33,4.11,9.27,4.89,1.14,5.65-5.59,5.94-8.85a29.26,29.26,0,0,0-1.34-11.49,2.54,2.54,0,0,0-3.67-1.49c-2.08,1-3,3.36-3.49,5.46a19.32,19.32,0,0,0-.46,7,9.67,9.67,0,0,0,.83,3.61,2.92,2.92,0,0,0,4.06.95c1.85-1.11,2.68-3.31,3-5.34a41.34,41.34,0,0,0,.5-7.46c-.06-2.41,0-5.59-2.25-7.06-2.14-1.36-4.79-.44-6.39,1.29a11.49,11.49,0,0,0-2.82,5.64c-1,5.35,1.14,10.28,3.74,14.84,1.59,2.79,5.91.28,4.31-2.53-2.26-4-5.26-9.94-1.91-14.18a7.58,7.58,0,0,1,.72-.71c0,.08-1-.57-.46-.22-.46-.29-.07-.29-.12,0a16.25,16.25,0,0,0,.17,2.5c0,.76,0,1.52,0,2.29a32.36,32.36,0,0,1-.36,4.4,6.87,6.87,0,0,1-.44,1.8.94.94,0,0,1-.45.52l1.26-.35h-.23l1.77.73-.19-.17.64,1.1a12.52,12.52,0,0,1-.43-5.77,14.73,14.73,0,0,1,.69-2.86c.21-.62.36-1,.81-1.18L95.74,232a24.47,24.47,0,0,1,.54,13.67c0,.09-.24.74-.22.75s.1-.08.09-.08,1.41-.56,1.17-.1a7.93,7.93,0,0,0-.27-1.26c-.1-.67-.13-1.35-.17-2a62.1,62.1,0,0,1,.15-7.09A11.13,11.13,0,0,1,98.21,231a3.07,3.07,0,0,1,.61-.79s.35-.36.33-.31c.14-.35-.85-.66-1-.42s.48.91.58,1.1a12.91,12.91,0,0,1,.63,1.55,19,19,0,0,1,.91,6.08,20.3,20.3,0,0,1-.89,6.48,2.91,2.91,0,0,1-1.25,1.74c-.62.29-.9,0-1.25-.52-1.21-1.7-1.43-4.52-1.08-6.65a2.57,2.57,0,0,0-1.74-3.07A2.52,2.52,0,0,0,91,237.93Z"/></svg>